<?xml version="1.0" encoding="UTF-8" standalone="no"?>
<svg
   id="svg3792"
   height="24"
   width="24"
   version="1.1"
   xml:space="preserve"
   xmlns:xlink="http://www.w3.org/1999/xlink"
   xmlns="http://www.w3.org/2000/svg"
   xmlns:svg="http://www.w3.org/2000/svg"
   xmlns:rdf="http://www.w3.org/1999/02/22-rdf-syntax-ns#"
   xmlns:cc="http://creativecommons.org/ns#"
   xmlns:dc="http://purl.org/dc/elements/1.1/"><defs
     id="defs3794"><linearGradient
       id="linearGradient4382"><stop
         id="stop4384"
         style="stop-color:#64baff;stop-opacity:1"
         offset="0" /><stop
         id="stop4386"
         style="stop-color:#3689e6;stop-opacity:1"
         offset="1" /></linearGradient><linearGradient
       gradientTransform="translate(-190.8773,-398.71319)"
       gradientUnits="userSpaceOnUse"
       y2="403.65472"
       x2="209.8775"
       y1="403.65472"
       x1="190.87645"
       id="linearGradient7964"
       xlink:href="#linearGradient7443" /><linearGradient
       id="linearGradient7443"><stop
         style="stop-color:#888a85;stop-opacity:0;"
         offset="0"
         id="stop7445" /><stop
         id="stop7447"
         offset="0.10416666"
         style="stop-color:#888a85;stop-opacity:1;" /><stop
         style="stop-color:#888a85;stop-opacity:1;"
         offset="0.7013889"
         id="stop7449" /><stop
         style="stop-color:#888a85;stop-opacity:0;"
         offset="1"
         id="stop7451" /></linearGradient><linearGradient
       gradientTransform="matrix(1,0,0,0.333336,-190.8773,-129.23889)"
       y2="403.65472"
       x2="212.50331"
       y1="403.65472"
       x1="191.80257"
       gradientUnits="userSpaceOnUse"
       id="linearGradient7972"
       xlink:href="#linearGradient7431" /><linearGradient
       id="linearGradient7431"><stop
         id="stop7433"
         offset="0"
         style="stop-color:#e6e6e6;stop-opacity:0" /><stop
         style="stop-color:white;stop-opacity:1;"
         offset="0.10416666"
         id="stop7435" /><stop
         id="stop7438"
         offset="0.6267361"
         style="stop-color:white;stop-opacity:1;" /><stop
         id="stop7440"
         offset="1"
         style="stop-color:white;stop-opacity:0;" /></linearGradient><linearGradient
       y2="38.112343"
       x2="36.657681"
       y1="21.587172"
       x1="36.657681"
       gradientTransform="matrix(0.61732467,0,0,0.18154125,-14.933001,0.08103791)"
       gradientUnits="userSpaceOnUse"
       id="linearGradient8802"
       xlink:href="#linearGradient8812" /><linearGradient
       id="linearGradient8812"><stop
         id="stop8804"
         style="stop-color:#ffffff;stop-opacity:1"
         offset="0" /><stop
         id="stop8806"
         style="stop-color:#ffffff;stop-opacity:0.23529412"
         offset="0" /><stop
         id="stop8808"
         style="stop-color:#ffffff;stop-opacity:0.15686275"
         offset="1" /><stop
         id="stop8810"
         style="stop-color:#ffffff;stop-opacity:0.39215687"
         offset="1" /></linearGradient><linearGradient
       gradientUnits="userSpaceOnUse"
       y2="9"
       x2="8"
       y1="2"
       x1="8"
       id="linearGradient932"
       xlink:href="#linearGradient4382" /></defs><metadata
     id="metadata3797"><rdf:RDF><cc:Work
         rdf:about=""><dc:format>image/svg+xml</dc:format><dc:type
           rdf:resource="http://purl.org/dc/dcmitype/StillImage" /></cc:Work></rdf:RDF></metadata><rect
     style="display:inline;opacity:1;fill:url(#linearGradient7964);fill-opacity:1;stroke:none;stroke-width:1;stroke-linecap:round;stroke-linejoin:miter;stroke-miterlimit:4;stroke-dasharray:none;stroke-opacity:1"
     id="rect7075"
     width="18.999996"
     height="3"
     x="0"
     y="4.0000076" /><rect
     style="display:inline;opacity:0.8;fill:url(#linearGradient7972);fill-opacity:1;stroke:none;stroke-width:1;stroke-linecap:round;stroke-linejoin:miter;stroke-miterlimit:4;stroke-dasharray:none;stroke-opacity:1"
     id="rect7970"
     width="18.999996"
     height="1.0000083"
     x="0"
     y="5.0000076" /><path
     id="path7938"
     d="m 4.4999987,2.5001579 h 6.0000003 v 6.00011 H 4.4999987 Z"
     style="font-variation-settings:normal;display:inline;opacity:1;vector-effect:none;fill:url(#linearGradient932);fill-opacity:1;stroke:#002e99;stroke-width:1;stroke-linecap:round;stroke-linejoin:round;stroke-miterlimit:4;stroke-dasharray:none;stroke-dashoffset:0;stroke-opacity:0.5;marker:none" /><path
     id="path2647-0-3"
     d="m 5.4959987,3.4972279 v 4.00536 l 4.008,-0.005 v -4.00033 z"
     style="color:#000000;clip-rule:nonzero;display:inline;overflow:visible;visibility:visible;opacity:0.5;isolation:auto;mix-blend-mode:normal;color-interpolation:sRGB;color-interpolation-filters:linearRGB;solid-color:#000000;solid-opacity:1;fill:none;fill-opacity:1;fill-rule:nonzero;stroke:url(#linearGradient8802);stroke-width:0.992;stroke-linecap:butt;stroke-linejoin:miter;stroke-miterlimit:4;stroke-dasharray:none;stroke-dashoffset:0;stroke-opacity:1;marker:none;color-rendering:auto;image-rendering:auto;shape-rendering:auto;text-rendering:auto;enable-background:accumulate" /><g
     id="g2"
     transform="translate(-0.5,0.14761)"><path
       id="path7371-6-4-9-2-4"
       style="font-variation-settings:normal;opacity:0.2;vector-effect:none;fill:#000000;fill-opacity:1;fill-rule:evenodd;stroke:none;stroke-width:4;stroke-linecap:round;stroke-linejoin:round;stroke-miterlimit:4;stroke-dasharray:none;stroke-dashoffset:0;stroke-opacity:1;-inkscape-stroke:none;stop-color:#000000"
       d="M 7.890625,5.9763733 C 6.754944,6.3026183 6.357658,7.5697122 6.5,8.6357488 6.51962,12.22526 6.46082,15.819496 6.5293,19.406061 c 0.149582,1.344321 1.990684,1.941702 2.906642,0.950823 1.006472,-1.149236 1.956288,-2.351533 2.941014,-3.521136 1.587878,-0.02531 3.186425,0.10601 4.767578,-0.01953 1.375649,-0.273212 1.815817,-2.230846 0.705404,-3.079095 -2.7523,-2.486485 -5.461412,-5.0259642 -8.24056,-7.4794997 -0.502127,-0.346411 -1.132195,-0.446068 -1.71875,-0.28125 z" /><path
       id="path7371-6-4-6-5-7-5-8-9"
       style="font-variation-settings:normal;opacity:0.025;vector-effect:none;fill:#000000;fill-opacity:1;fill-rule:evenodd;stroke:none;stroke-width:4;stroke-linecap:round;stroke-linejoin:round;stroke-miterlimit:4;stroke-dasharray:none;stroke-dashoffset:0;stroke-opacity:1;-inkscape-stroke:none;stop-color:#000000"
       d="M 8.164063,2.9080443 C 5.258857,2.9677243 3.122905,5.9888643 3.485929,8.7599858 3.59424,12.639912 3.315048,16.538085 3.67483,20.405402 c 0.729473,3.211169 5.291413,4.577551 7.661106,2.287035 0.870936,-0.906158 1.651668,-1.894825 2.45508,-2.860565 2.11583,0.05727 4.612051,0.323973 6.260596,-1.298791 2.02813,-1.960767 1.837634,-5.718648 -0.529653,-7.333817 C 16.693865,8.6698818 13.975402,6.0099802 11.033203,3.6131223 10.175963,3.0975883 9.161667,2.8553653 8.164063,2.9080443 Z" /><path
       id="path7371-6-4-6-5-6-7-5"
       style="font-variation-settings:normal;opacity:0.05;vector-effect:none;fill:#000000;fill-opacity:1;fill-rule:evenodd;stroke:none;stroke-width:4;stroke-linecap:round;stroke-linejoin:round;stroke-miterlimit:4;stroke-dasharray:none;stroke-dashoffset:0;stroke-opacity:1;-inkscape-stroke:none;stop-color:#000000"
       d="m 8.189453,3.9080443 c -2.331724,0.06093 -3.976928,2.4933509 -3.705912,4.7019304 0.09666,3.8164173 -0.122044,7.6462243 0.1356,11.4543203 0.540856,2.618133 4.265116,3.724903 6.133725,1.802853 0.893739,-0.978524 1.719449,-2.017071 2.567446,-3.035275 1.794437,-0.04414 3.754028,0.354577 5.406209,-0.527004 2.139183,-1.269373 2.354278,-4.744755 0.303023,-6.202397 C 16.202096,9.5717117 13.46967,6.9215302 10.546875,4.4861692 9.845421,4.0560502 9.009416,3.8579902 8.189453,3.9080443 Z" /><path
       id="path7371-6-4-6-2-9-0"
       style="font-variation-settings:normal;opacity:0.1;vector-effect:none;fill:#000000;fill-opacity:1;fill-rule:evenodd;stroke:none;stroke-width:4;stroke-linecap:round;stroke-linejoin:round;stroke-miterlimit:4;stroke-dasharray:none;stroke-dashoffset:0;stroke-opacity:1;-inkscape-stroke:none;stop-color:#000000"
       d="m 8.222656,4.9080443 c -1.737485,0.06478 -2.894531,1.852628 -2.741361,3.486495 0.07951,3.7643347 -0.07004,7.5385447 0.08458,11.2991827 0.307563,2.017476 3.161068,2.89465 4.549358,1.397916 0.940185,-1.058885 1.820328,-2.16785 2.728515,-3.253906 1.634026,-0.05745 3.31539,0.220493 4.915849,-0.166105 1.904595,-0.676387 2.332681,-3.561014 0.684125,-4.74702 C 15.643235,10.403912 12.916316,7.7951852 10.049629,5.3536332 9.509566,5.0135652 8.857649,4.8632382 8.222656,4.9080443 Z" /><path
       id="path7371-6-1-0-8"
       style="font-variation-settings:normal;vector-effect:none;fill:#ffffff;fill-opacity:1;fill-rule:evenodd;stroke:none;stroke-width:4;stroke-linecap:round;stroke-linejoin:round;stroke-miterlimit:4;stroke-dasharray:none;stroke-dashoffset:0;stroke-opacity:1;-inkscape-stroke:none;stop-color:#000000"
       d="M 7.890625,4.9764033 C 6.754944,5.3026483 6.357658,6.5697423 6.5,7.6357783 6.51962,11.22529 6.46082,14.819525 6.5293,18.406092 c 0.149582,1.344319 1.990684,1.9417 2.906642,0.950821 1.006472,-1.149235 1.956288,-2.351532 2.941014,-3.521135 1.587878,-0.02531 3.186425,0.106009 4.767578,-0.01953 1.375649,-0.273212 1.815817,-2.230846 0.705404,-3.079096 -2.7523,-2.486483 -5.461412,-5.0259637 -8.24056,-7.4794987 -0.502127,-0.346411 -1.132195,-0.446068 -1.71875,-0.28125 z" /><path
       id="path7371-2-2-7"
       d="M 7.5,6.8359972 V 18.164003 a 0.71853435,0.71279267 0 0 0 1.273511,0.452742 l 3.137485,-3.78474 4.810674,0.04077 a 0.77173585,0.76556904 0 0 0 0.528898,-1.329133 L 9.121339,6.1298573 A 0.9669293,0.95920273 0 0 0 7.5,6.8359972 Z"
       style="font-variation-settings:normal;vector-effect:none;fill:#333333;fill-opacity:1;fill-rule:evenodd;stroke:none;stroke-width:3.99999;stroke-linecap:round;stroke-linejoin:round;stroke-miterlimit:4;stroke-dasharray:none;stroke-dashoffset:0;stroke-opacity:1;-inkscape-stroke:none;stop-color:#000000" /></g></svg>
